<?xml version="1.0" standalone="no"?>
<!DOCTYPE svg PUBLIC "-//W3C//DTD SVG 20010904//EN"
 "http://www.w3.org/TR/2001/REC-SVG-20010904/DTD/svg10.dtd">
<svg version="1.0" xmlns="http://www.w3.org/2000/svg"
 width="646.000000pt" height="646.000000pt" viewBox="0 0 646.000000 646.000000"
 preserveAspectRatio="xMidYMid meet">
<metadata>
Created by potrace 1.14, written by Peter Selinger 2001-2017
</metadata>
<g transform="translate(0.000000,646.000000) scale(0.100000,-0.100000)"
fill="#000000" stroke="none">
<path d="M390 5150 l0 -1311 63 1 c34 0 69 -1 77 -1 8 -1 44 -1 80 0 36 0 72
0 80 0 8 -1 44 -1 80 0 36 0 72 0 80 0 8 -1 44 -1 80 0 36 0 72 0 80 0 8 -1
44 -1 80 0 36 0 72 0 80 0 8 -1 44 -1 80 0 36 0 72 0 80 0 8 -1 44 -1 80 0 36
0 72 0 80 0 8 -1 44 -1 80 0 36 0 72 0 80 0 8 -1 44 -1 80 0 36 0 72 0 80 0 8
-1 44 -1 80 0 36 0 72 0 80 0 8 -1 44 -1 80 0 36 0 72 0 80 0 8 -1 44 -1 80 0
36 0 72 0 80 0 8 -1 44 0 80 1 36 1 70 1 75 0 6 -1 823 -2 1818 -1 l1807 1 0
1310 0 1310 -2840 0 -2840 0 0 -1310z"/>
<path d="M1558 3655 c-2 -1 -30 -5 -63 -9 -63 -7 -110 -14 -135 -21 -8 -2 -31
-7 -50 -10 -19 -3 -80 -22 -135 -41 -55 -19 -104 -35 -110 -37 -5 -2 -48 -23
-95 -47 -97 -51 -217 -138 -275 -202 -66 -71 -155 -190 -155 -207 0 -4 -10
-28 -23 -52 -23 -45 -45 -113 -68 -209 -14 -59 -18 -285 -7 -361 29 -200 118
-364 280 -521 128 -124 299 -228 523 -318 44 -17 89 -36 100 -40 11 -5 47 -18
80 -30 33 -11 67 -23 75 -27 8 -3 20 -7 25 -9 58 -15 397 -136 499 -177 94
-39 174 -92 210 -141 75 -100 50 -255 -57 -353 -81 -75 -181 -105 -344 -104
-66 0 -102 3 -188 17 -65 10 -225 71 -225 85 0 5 -6 9 -14 9 -23 0 -120 105
-150 161 -22 43 -29 73 -33 142 -9 133 21 124 -415 124 -353 1 -390 -2 -411
-31 -11 -17 -5 -241 10 -325 60 -347 281 -616 634 -771 49 -22 98 -40 107 -40
10 0 22 -4 28 -9 8 -8 114 -36 179 -47 118 -20 148 -24 215 -30 101 -9 306 -9
406 0 81 7 107 10 174 22 19 4 44 8 55 10 161 27 427 143 519 227 11 9 23 17
28 17 17 0 165 159 209 225 80 120 116 209 144 357 55 294 -10 577 -174 758
-211 234 -329 297 -956 512 -143 50 -271 93 -285 98 -14 4 -38 14 -55 21 -16
7 -48 19 -70 28 -146 58 -262 153 -285 237 -17 58 -16 148 1 189 7 17 12 33
11 37 -1 3 20 28 46 55 55 57 113 87 208 106 68 13 245 15 294 2 14 -4 36 -9
50 -12 45 -8 112 -39 170 -77 65 -43 136 -120 165 -180 30 -61 35 -82 41 -156
7 -88 12 -99 42 -107 15 -3 191 -6 390 -6 325 0 366 2 380 17 14 13 17 36 17
114 -1 114 -10 207 -24 245 -6 15 -8 27 -6 27 7 0 -56 172 -79 215 -105 195
-274 363 -476 472 -110 59 -314 131 -420 148 -19 3 -46 8 -60 10 -69 14 -109
17 -282 20 -103 1 -189 1 -190 0z"/>
<path d="M3552 3596 c-16 -22 -17 -112 -17 -1764 0 -1656 1 -1742 18 -1759 17
-17 82 -18 1235 -18 753 -1 1226 3 1239 8 13 6 26 19 30 31 4 12 7 159 8 328
0 357 3 347 -86 354 -30 3 -60 7 -66 9 -7 2 -13 1 -13 -3 0 -8 -431 -8 -446 0
-8 4 -24 3 -41 -2 -10 -3 -285 -3 -298 0 -5 1 -14 1 -20 0 -12 -2 -440 -2
-440 0 0 6 -36 7 -39 1 -4 -6 -226 -5 -233 2 -8 9 -2 702 6 710 6 6 214 10
537 10 516 0 526 0 545 20 18 20 19 40 19 337 0 381 9 357 -133 358 -48 1 -91
4 -96 7 -6 3 -12 2 -14 -2 -4 -7 -151 -9 -167 -3 -3 2 -9 1 -15 0 -25 -5 -595
-1 -604 4 -5 4 -12 2 -15 -2 -6 -11 -54 -4 -62 9 -6 11 -5 634 2 652 4 11 150
13 812 12 485 -1 815 3 827 9 11 5 24 16 30 25 5 9 10 147 10 330 0 304 0 316
-20 337 l-21 22 -1227 0 -1227 0 -18 -22z"/>
</g>
</svg>
