<svg width="66" height="26" viewBox="0 0 66 26" fill="none" xmlns="http://www.w3.org/2000/svg">
<rect y="2" width="32" height="24" fill="#375E9E"/>
<path d="M44.272 22.192C42.944 22.192 41.784 21.984 40.792 21.568C39.816 21.136 39.056 20.528 38.512 19.744C37.984 18.944 37.72 18.024 37.72 16.984V16.528C37.72 16.448 37.744 16.384 37.792 16.336C37.856 16.272 37.928 16.24 38.008 16.24H41.344C41.424 16.24 41.488 16.272 41.536 16.336C41.6 16.384 41.632 16.448 41.632 16.528V16.816C41.632 17.344 41.896 17.808 42.424 18.208C42.952 18.592 43.664 18.784 44.56 18.784C45.264 18.784 45.784 18.632 46.12 18.328C46.456 18.024 46.624 17.672 46.624 17.272C46.624 16.952 46.52 16.696 46.312 16.504C46.12 16.296 45.856 16.128 45.52 16C45.184 15.856 44.664 15.664 43.96 15.424C43.864 15.376 43.768 15.344 43.672 15.328C43.576 15.296 43.488 15.264 43.408 15.232C42.368 14.896 41.464 14.536 40.696 14.152C39.928 13.752 39.272 13.208 38.728 12.52C38.184 11.816 37.912 10.952 37.912 9.928C37.912 8.936 38.168 8.072 38.68 7.336C39.208 6.584 39.936 6.008 40.864 5.608C41.792 5.208 42.84 5.008 44.008 5.008C45.24 5.008 46.344 5.232 47.32 5.68C48.312 6.128 49.088 6.76 49.648 7.576C50.208 8.392 50.488 9.328 50.488 10.384V10.72C50.488 10.8 50.456 10.872 50.392 10.936C50.344 10.984 50.28 11.008 50.2 11.008H46.864C46.784 11.008 46.712 10.984 46.648 10.936C46.6 10.872 46.576 10.8 46.576 10.72V10.552C46.576 9.992 46.328 9.496 45.832 9.064C45.336 8.632 44.672 8.416 43.84 8.416C43.216 8.416 42.728 8.544 42.376 8.8C42.024 9.056 41.848 9.416 41.848 9.88C41.848 10.232 41.96 10.528 42.184 10.768C42.408 10.992 42.752 11.208 43.216 11.416C43.696 11.608 44.424 11.864 45.4 12.184C46.52 12.568 47.392 12.904 48.016 13.192C48.64 13.48 49.224 13.952 49.768 14.608C50.328 15.248 50.608 16.096 50.608 17.152C50.608 18.192 50.344 19.088 49.816 19.84C49.288 20.592 48.544 21.176 47.584 21.592C46.64 21.992 45.536 22.192 44.272 22.192ZM64.4712 8.32C64.4712 8.4 64.4392 8.472 64.3752 8.536C64.3272 8.584 64.2632 8.608 64.1832 8.608H56.6472C56.5672 8.608 56.5272 8.648 56.5272 8.728V11.68C56.5272 11.76 56.5672 11.8 56.6472 11.8H61.4712C61.5512 11.8 61.6152 11.832 61.6632 11.896C61.7272 11.944 61.7592 12.008 61.7592 12.088V14.896C61.7592 14.976 61.7272 15.048 61.6632 15.112C61.6152 15.16 61.5512 15.184 61.4712 15.184H56.6472C56.5672 15.184 56.5272 15.224 56.5272 15.304V18.472C56.5272 18.552 56.5672 18.592 56.6472 18.592H64.1832C64.2632 18.592 64.3272 18.624 64.3752 18.688C64.4392 18.736 64.4712 18.8 64.4712 18.88V21.712C64.4712 21.792 64.4392 21.864 64.3752 21.928C64.3272 21.976 64.2632 22 64.1832 22H52.8312C52.7512 22 52.6792 21.976 52.6152 21.928C52.5672 21.864 52.5432 21.792 52.5432 21.712V5.488C52.5432 5.408 52.5672 5.344 52.6152 5.296C52.6792 5.232 52.7512 5.2 52.8312 5.2H64.1832C64.2632 5.2 64.3272 5.232 64.3752 5.296C64.4392 5.344 64.4712 5.408 64.4712 5.488V8.32Z" fill="black"/>
</svg>
